<svg xmlns="http://www.w3.org/2000/svg" xmlns:xlink="http://www.w3.org/1999/xlink" version="1.1" width="1000" height="1000" viewBox="0 0 1000 1000" xml:space="preserve">
<desc>Created with Fabric.js 3.5.0</desc>
<defs>
</defs>
<rect x="0" y="0" width="100%" height="100%" fill="rgba(255,255,255,0)"/>
<g transform="matrix(37.2779 0 0 37.2779 425.3754 412.0533)" id="711774">
<path style="stroke: none; stroke-width: 0; stroke-dasharray: none; stroke-linecap: butt; stroke-dashoffset: 0; stroke-linejoin: miter; stroke-miterlimit: 4; is-custom-font: none; font-file-url: none; fill: rgb(57,112,228); fill-rule: nonzero; opacity: 1;" vector-effect="non-scaling-stroke" transform=" translate(-12, -12.1153)" d="M 11.1142 1.43752 C 11.6726 1.16175 12.3274 1.16175 12.8858 1.43752 L 19.9628 4.9333 C 20.5056 5.20144 20.8978 5.70105 21.0293 6.29205 L 22.7955 14.2294 C 22.925 14.8114 22.7882 15.4208 22.4222 15.8914 L 17.496 22.2276 C 17.1171 22.7149 16.5344 23 15.9171 23 H 8.08294 C 7.46563 23 6.88291 22.7149 6.504 22.2276 L 1.57778 15.8914 C 1.21185 15.4208 1.07497 14.8114 1.20446 14.2294 L 2.9707 6.29205 C 3.10221 5.70105 3.49436 5.20144 4.0372 4.9333 L 11.1142 1.43752 Z" stroke-linecap="round"/>
</g>
<g transform="matrix(1 0 0 1 430.5642 869.1734)" style="" id="572090">
		
<path xml:space="preserve" font-family="Alef" font-size="77" font-style="normal" font-weight="bold" style="stroke: none; stroke-width: 0; stroke-dasharray: none; stroke-linecap: butt; stroke-dashoffset: 0; stroke-linejoin: miter; stroke-miterlimit: 4; is-custom-font: none; font-file-url: none; fill: rgb(95,115,204); fill-rule: nonzero; opacity: 1; white-space: pre;" d="M-273.32-29.88L-262.79-29.88L-242.37 24.19L-252.98 24.19L-259.14 7.57L-276.96 7.57L-283.13 24.19L-293.73 24.19L-273.32-29.88ZM-261.92 0.01L-268.05-18.71L-274.18 0.01L-261.92 0.01ZM-230.98-23.86L-220.68-23.86L-220.68-14.91L-207.52-14.91L-207.52-7.39L-220.68-7.39L-220.68 11.37Q-220.68 13.21-220.51 14.41Q-220.34 15.62-219.89 16.31Q-219.44 17.01-218.65 17.29Q-217.86 17.57-216.62 17.57L-216.62 17.57Q-215.42 17.57-213.82 17.31Q-212.22 17.05-210.04 16.56L-210.04 16.56Q-209.81 17.23-209.53 18.14Q-209.25 19.04-208.97 20.00Q-208.69 20.96-208.42 21.84Q-208.16 22.72-207.93 23.40L-207.93 23.40Q-208.99 23.78-210.40 24.09Q-211.81 24.41-213.35 24.64Q-214.89 24.87-216.47 24.98Q-218.05 25.09-219.44 25.09L-219.44 25.09Q-220.75 25.09-222.03 24.98Q-223.31 24.87-224.46 24.58Q-225.60 24.30-226.58 23.85Q-227.56 23.40-228.27 22.68L-228.27 22.68Q-229.93 21.07-230.45 18.23Q-230.98 15.39-230.98 10.99L-230.98 10.99L-230.98-7.39L-236.62-7.39L-236.62-14.91L-230.98-14.91L-230.98-23.86ZM-194.85-23.86L-184.55-23.86L-184.55-14.91L-171.39-14.91L-171.39-7.39L-184.55-7.39L-184.55 11.37Q-184.55 13.21-184.38 14.41Q-184.21 15.62-183.76 16.31Q-183.31 17.01-182.52 17.29Q-181.73 17.57-180.49 17.57L-180.49 17.57Q-179.28 17.57-177.69 17.31Q-176.09 17.05-173.91 16.56L-173.91 16.56Q-173.68 17.23-173.40 18.14Q-173.12 19.04-172.84 20.00Q-172.55 20.96-172.29 21.84Q-172.03 22.72-171.80 23.40L-171.80 23.40Q-172.86 23.78-174.27 24.09Q-175.68 24.41-177.22 24.64Q-178.76 24.87-180.34 24.98Q-181.92 25.09-183.31 25.09L-183.31 25.09Q-184.62 25.09-185.90 24.98Q-187.18 24.87-188.33 24.58Q-189.47 24.30-190.45 23.85Q-191.43 23.40-192.14 22.68L-192.14 22.68Q-193.80 21.07-194.32 18.23Q-194.85 15.39-194.85 10.99L-194.85 10.99L-194.85-7.39L-200.49-7.39L-200.49-14.91L-194.85-14.91L-194.85-23.86ZM-132.10 15.35L-129.69 22.42Q-131.23 23.06-133.06 23.55Q-134.88 24.04-136.87 24.38Q-138.87 24.72-140.92 24.90Q-142.97 25.09-144.92 25.09L-144.92 25.09Q-154.81 25.09-159.87 20.34Q-164.92 15.58-164.92 5.77L-164.92 5.77Q-164.92 1.40-163.91-2.51Q-162.89-6.42-160.62-9.37Q-158.34-12.32-154.64-14.05Q-150.94-15.78-145.56-15.78L-145.56-15.78Q-136.16-15.78-131.54-10.80Q-126.91-5.81-126.91 4.41L-126.91 4.41L-126.91 7.38L-154.70 7.38Q-154.62 9.94-154.09 11.89Q-153.57 13.85-152.35 15.18Q-151.12 16.52-149.13 17.21Q-147.14 17.91-144.13 17.91L-144.13 17.91Q-141.50 17.91-138.45 17.25Q-135.41 16.59-132.10 15.35L-132.10 15.35ZM-154.55 0.69L-137.21 0.69Q-137.48-8.60-145.56-8.60L-145.56-8.60Q-149.73-8.60-151.89-6.19Q-154.06-3.78-154.55 0.69L-154.55 0.69ZM-106.83-8.22L-106.34-8.22Q-105.10-10.10-103.77-11.51Q-102.43-12.92-100.91-13.88Q-99.39-14.84-97.57-15.31Q-95.74-15.78-93.52-15.78L-93.52-15.78Q-91.04-15.78-89.13-15.23Q-87.21-14.69-85.82-13.65Q-84.43-12.62-83.47-11.10Q-82.51-9.57-81.94-7.66L-81.94-7.66Q-81.42-5.74-81.17-3.50Q-80.93-1.26-80.93 1.33L-80.93 1.33L-80.93 24.19L-91.23 24.19L-91.23-1.64Q-91.23-4.87-92.72-6.57Q-94.20-8.26-96.76-8.26L-96.76-8.26Q-98.19-8.26-99.56-7.58Q-100.93-6.90-102.21-5.80Q-103.49-4.69-104.58-3.30Q-105.67-1.90-106.53-0.48L-106.53-0.48L-106.53 24.19L-116.83 24.19L-116.83 0.09Q-116.83-2.96-116.89-5.01Q-116.95-7.05-117.10-8.63L-117.10-8.63Q-117.17-9.42-117.25-10.03Q-117.32-10.63-117.42-11.19Q-117.51-11.75-117.64-12.34Q-117.77-12.92-117.96-13.67L-117.96-13.67Q-115.52-14.31-113.09-14.82Q-110.67-15.33-108.19-15.78L-108.19-15.78Q-107.92-14.99-107.70-14.22Q-107.47-13.45-107.32-12.56Q-107.17-11.68-107.06-10.63Q-106.95-9.57-106.83-8.22L-106.83-8.22ZM-46.83-29.95L-36.53-29.95L-36.53 11.44L-36.53 13.06Q-36.53 15.99-36.34 18.34Q-36.15 20.69-35.51 23.10L-35.51 23.10Q-36.71 23.44-37.84 23.72Q-38.97 24.00-40.08 24.25Q-41.19 24.49-42.32 24.70Q-43.44 24.90-44.68 25.09L-44.68 25.09Q-44.99 24.30-45.19 23.59Q-45.40 22.87-45.57 22.05Q-45.74 21.22-45.85 20.24Q-45.96 19.26-46.04 17.95L-46.04 17.95L-46.45 17.95Q-50.81 25.09-58.78 25.09L-58.78 25.09Q-62.73 25.09-65.44 23.55Q-68.15 22.01-69.82 19.40Q-71.49 16.78-72.23 13.34Q-72.96 9.90-72.96 6.07L-72.96 6.07Q-72.96 0.65-71.51-3.43Q-70.06-7.51-67.43-10.25Q-64.80-13.00-61.13-14.39Q-57.47-15.78-53.03-15.78L-53.03-15.78Q-51.41-15.78-49.89-15.63Q-48.37-15.48-46.83-15.25L-46.83-15.25L-46.83-29.95ZM-46.72 10.35L-46.72-7.51Q-49.72-8.26-52.32-8.26L-52.32-8.26Q-54.54-8.26-56.43-7.66Q-58.33-7.05-59.72-5.70Q-61.11-4.35-61.89-2.20Q-62.66-0.06-62.66 3.02L-62.66 3.02Q-62.66 6.22-62.41 8.89Q-62.17 11.56-61.38 13.49Q-60.59 15.43-59.12 16.50Q-57.66 17.57-55.21 17.57L-55.21 17.57Q-53.45 17.57-52.11 16.86Q-50.78 16.14-49.69 14.86L-49.69 14.86Q-48.86 13.96-48.14 12.82Q-47.43 11.67-46.72 10.35L-46.72 10.35ZM-20.92-5.85L-23.22-13.00Q-21.83-13.56-20.04-14.05Q-18.25-14.54-16.24-14.93Q-14.23-15.33-12.07-15.55Q-9.91-15.78-7.69-15.78L-7.69-15.78Q-4.57-15.78-1.84-15.29Q0.88-14.80 2.69-13.67L2.69-13.67Q4.49-12.54 5.51-10.61Q6.52-8.67 6.52-5.74L6.52-5.74L6.52 9.53Q6.52 12.16 6.56 14.21Q6.60 16.26 6.71 18.21L6.71 18.21Q6.79 18.93 6.86 19.51Q6.94 20.09 7.03 20.64Q7.12 21.18 7.26 21.78Q7.39 22.38 7.58 23.10L7.58 23.10Q5.24 23.62 2.93 24.11Q0.62 24.60-1.75 25.05L-1.75 25.05Q-2.16 24.00-2.41 22.89Q-2.65 21.78-2.84 20.35L-2.84 20.35L-3.40 20.35Q-4.72 21.71-6.03 22.61Q-7.35 23.51-8.78 24.08Q-10.21 24.64-11.75 24.87Q-13.29 25.09-14.98 25.09L-14.98 25.09Q-17.58 25.09-19.80 24.47Q-22.01 23.85-23.65 22.57Q-25.28 21.29-26.21 19.32Q-27.13 17.35-27.13 14.68L-27.13 14.68Q-27.13 12.42-26.66 10.65Q-26.19 8.89-25.32 7.50Q-24.46 6.10-23.25 5.05Q-22.05 4.00-20.58 3.21L-20.58 3.21Q-17.65 1.63-14.04 1.05Q-10.43 0.46-6.67 0.46L-6.67 0.46L-3.44 0.46L-3.44-4.42Q-3.44-5.81-3.87-6.62Q-4.30-7.43-5.04-7.84Q-5.77-8.26-6.75-8.39Q-7.73-8.52-8.85-8.52L-8.85-8.52Q-11.90-8.52-15.00-7.75Q-18.10-6.98-20.92-5.85L-20.92-5.85ZM-3.44 13.70L-3.44 5.99L-4.19 5.99Q-6.86 6.03-9.29 6.39Q-11.71 6.74-13.55 7.61Q-15.40 8.47-16.51 9.88Q-17.61 11.29-17.61 13.44L-17.61 13.44Q-17.61 15.80-16.24 17.08Q-14.87 18.36-12.39 18.36L-12.39 18.36Q-11.22 18.36-9.98 18.04Q-8.74 17.72-7.54 17.14Q-6.34 16.56-5.28 15.69Q-4.23 14.83-3.44 13.70L-3.44 13.70ZM29.01-8.22L29.50-8.22Q30.74-10.10 32.07-11.51Q33.41-12.92 34.93-13.88Q36.45-14.84 38.27-15.31Q40.10-15.78 42.32-15.78L42.32-15.78Q44.80-15.78 46.72-15.23Q48.63-14.69 50.02-13.65Q51.41-12.62 52.37-11.10Q53.33-9.57 53.90-7.66L53.90-7.66Q54.42-5.74 54.67-3.50Q54.91-1.26 54.91 1.33L54.91 1.33L54.91 24.19L44.61 24.19L44.61-1.64Q44.61-4.87 43.12-6.57Q41.64-8.26 39.08-8.26L39.08-8.26Q37.65-8.26 36.28-7.58Q34.91-6.90 33.63-5.80Q32.35-4.69 31.26-3.30Q30.17-1.90 29.31-0.48L29.31-0.48L29.31 24.19L19.01 24.19L19.01 0.09Q19.01-2.96 18.95-5.01Q18.89-7.05 18.74-8.63L18.74-8.63Q18.67-9.42 18.59-10.03Q18.52-10.63 18.42-11.19Q18.33-11.75 18.20-12.34Q18.07-12.92 17.88-13.67L17.88-13.67Q20.32-14.31 22.75-14.82Q25.17-15.33 27.65-15.78L27.65-15.78Q27.92-14.99 28.14-14.22Q28.37-13.45 28.52-12.56Q28.67-11.68 28.78-10.63Q28.89-9.57 29.01-8.22L29.01-8.22ZM94.05 15.28L96.42 22.72Q94.88 23.29 93.04 23.74Q91.19 24.19 89.29 24.49Q87.40 24.79 85.55 24.94Q83.71 25.09 82.17 25.09L82.17 25.09Q76.72 25.09 72.96 23.81Q69.20 22.53 66.89 20.03Q64.57 17.53 63.56 13.85Q62.54 10.16 62.54 5.39L62.54 5.39Q62.54 0.39 63.84-3.56Q65.14-7.51 67.73-10.21Q70.33-12.92 74.20-14.35Q78.07-15.78 83.26-15.78L83.26-15.78Q86.27-15.78 89.24-15.31Q92.21-14.84 94.92-14.05L94.92-14.05L92.40-6.60Q90.14-7.36 88.02-7.81Q85.89-8.26 83.71-8.26L83.71-8.26Q80.82-8.26 78.77-7.30Q76.72-6.34 75.40-4.63Q74.09-2.92 73.47-0.55Q72.85 1.82 72.85 4.64L72.85 4.64Q72.85 11.18 75.12 14.38Q77.39 17.57 82.66 17.57L82.66 17.57Q85.89 17.57 88.62 16.89Q91.34 16.22 94.05 15.28L94.05 15.28ZM135.78 15.35L138.19 22.42Q136.65 23.06 134.83 23.55Q133.00 24.04 131.01 24.38Q129.02 24.72 126.97 24.90Q124.92 25.09 122.96 25.09L122.96 25.09Q113.07 25.09 108.02 20.34Q102.96 15.58 102.96 5.77L102.96 5.77Q102.96 1.40 103.98-2.51Q104.99-6.42 107.27-9.37Q109.54-12.32 113.24-14.05Q116.95-15.78 122.32-15.78L122.32-15.78Q131.72-15.78 136.35-10.80Q140.97-5.81 140.97 4.41L140.97 4.41L140.97 7.38L113.19 7.38Q113.26 9.94 113.79 11.89Q114.32 13.85 115.54 15.18Q116.76 16.52 118.75 17.21Q120.74 17.91 123.75 17.91L123.75 17.91Q126.38 17.91 129.43 17.25Q132.48 16.59 135.78 15.35L135.78 15.35ZM113.34 0.69L130.67 0.69Q130.41-8.60 122.32-8.60L122.32-8.60Q118.15-8.60 115.99-6.19Q113.83-3.78 113.34 0.69L113.34 0.69ZM188.12-29.88L198.65-29.88L219.06 24.19L208.46 24.19L202.29 7.57L184.47 7.57L178.31 24.19L167.70 24.19L188.12-29.88ZM199.51 0.01L193.38-18.71L187.26 0.01L199.51 0.01ZM227.60-29.88L248.54-29.88Q252.49-29.88 255.59-28.81Q258.69-27.73 260.83-25.67Q262.98-23.60 264.10-20.55Q265.23-17.51 265.23-13.56L265.23-13.56Q265.23-9.27 263.84-6.06Q262.45-2.84 259.86-0.70Q257.26 1.44 253.58 2.53Q249.89 3.62 245.34 3.62L245.34 3.62Q243.24 3.62 241.38 3.49Q239.52 3.36 238.09 3.21L238.09 3.21L238.09 24.19L227.60 24.19L227.60-29.88ZM238.09-22.66L238.09-3.97Q239.29-3.78 240.47-3.69Q241.66-3.60 242.79-3.60L242.79-3.60Q245.68-3.60 247.88-4.08Q250.08-4.57 251.57-5.70Q253.05-6.83 253.80-8.63Q254.55-10.44 254.55-13.11L254.55-13.11Q254.55-15.74 253.99-17.56Q253.43-19.39 252.19-20.51Q250.95-21.64 248.99-22.15Q247.04-22.66 244.25-22.66L244.25-22.66L238.09-22.66ZM277.15-29.88L287.64-29.88L287.64 24.19L277.15 24.19L277.15-29.88Z"/></g>
<g transform="matrix(1 0 0 1 535.2613 935.0799)" style="" id="526351">
		
<path xml:space="preserve" font-family="Abhaya Libre" font-size="36" font-style="normal" font-weight="bold" style="stroke: none; stroke-width: 0; stroke-dasharray: none; stroke-linecap: butt; stroke-dashoffset: 0; stroke-linejoin: miter; stroke-miterlimit: 4; is-custom-font: none; font-file-url: none; fill: rgb(82,113,255); fill-rule: nonzero; opacity: 1; white-space: pre;" d="M-138.38-5.04L-138.38-5.04Q-138.38-8.03-141.47-9.19L-141.47-9.19Q-143.09-9.78-145.27-9.78L-145.27-9.78L-156.20-9.78L-156.20-8.84L-153.39-8.84L-153.39 10.36L-156.20 10.36L-156.20 11.31L-144.81 11.31Q-140.10 11.31-137.99 8.46L-137.99 8.46Q-136.90 6.98-136.90 5.19L-136.90 5.19Q-136.90 1.68-140.45 0.38L-140.45 0.38Q-141.40 0.02-142.52-0.15L-142.52-0.15Q-139.57-1.14-138.66-3.53L-138.66-3.53Q-138.38-4.30-138.38-5.04ZM-149.06-8.84L-146.88-8.84Q-142.91-8.77-142.88-4.76L-142.88-4.76Q-142.88-1.87-144.95-0.96L-144.95-0.96Q-145.72-0.61-146.71-0.61L-146.71-0.61L-149.06-0.61L-149.06-8.84ZM-149.06 0.38L-145.90 0.38Q-142.95 0.38-141.96 3.01L-141.96 3.01Q-141.61 3.93-141.61 5.05L-141.61 5.05Q-141.61 8.67-144.00 9.90L-144.00 9.90Q-144.95 10.36-146.18 10.36L-146.18 10.36L-149.06 10.36L-149.06 0.38ZM-131.52 16.93L-131.52 16.93Q-132.12 16.93-132.47 16.02L-132.47 16.02Q-132.93 14.82-133.31 14.54L-133.31 14.54Q-133.70 14.26-134.26 14.26L-134.26 14.26Q-135.46 14.26-135.77 15.28L-135.77 15.28Q-135.84 15.53-135.84 15.74L-135.84 15.74Q-135.84 16.97-134.37 17.67L-134.37 17.67Q-133.45 18.09-132.36 18.09L-132.36 18.09Q-129.48 18.09-127.48 14.68L-127.48 14.68Q-126.70 13.42-126.00 11.63L-126.00 11.63L-120.76-1.77Q-120.38-2.72-119.88-2.82L-119.88-2.82Q-119.74-2.86-119.57-2.86L-119.57-2.86Q-118.83-2.86-118.72-3.32L-118.72-3.32Q-118.69-3.49-118.69-3.74L-118.69-3.74L-124.10-3.74L-124.10-2.86L-121.46-2.86L-125.54 7.41L-129.94-2.86L-127.72-2.86L-127.72-3.74L-135.56-3.74L-135.56-2.86L-133.98-2.86L-127.30 11.80Q-129.09 16.16-130.75 16.79L-130.75 16.79Q-131.13 16.93-131.52 16.93ZM-99.28-10.14L-99.28-10.14Q-103.82-10.14-106.98-7.25L-106.98-7.25Q-110.32-4.19-110.32 0.66L-110.32 0.66Q-110.32 6.25-106.35 9.34L-106.35 9.34Q-103.36 11.66-99.39 11.66L-99.39 11.66Q-94.89 11.66-91.76 8.74L-91.76 8.74Q-88.45 5.65-88.45 0.80L-88.45 0.80Q-88.45-4.97-92.53-7.99L-92.53-7.99Q-95.41-10.14-99.28-10.14ZM-99.28 10.64L-99.28 10.64Q-103.64 10.64-104.87 6.04L-104.87 6.04Q-105.43 3.89-105.43 0.80L-105.43 0.80Q-105.43-8.59-100.05-9.08L-100.05-9.08Q-99.70-9.12-99.39-9.12L-99.39-9.12Q-94.68-9.12-93.66-3.39L-93.66-3.39Q-93.34-1.63-93.34 0.66L-93.34 0.66Q-93.34 9.31-97.70 10.47L-97.70 10.47Q-98.44 10.64-99.28 10.64ZM-78.15 17.07L-80.16 17.07L-80.16 9.97Q-78.68 11.63-75.87 11.66L-75.87 11.66Q-72.53 11.66-70.42 9.09L-70.42 9.09Q-68.55 6.81-68.55 3.33L-68.55 3.33Q-68.55-0.96-71.05-3.00L-71.05-3.00Q-72.56-4.23-74.53-4.23L-74.53-4.23Q-77.45-4.23-79.21-2.05L-79.21-2.05Q-79.88-1.21-80.23-0.22L-80.23-0.22L-80.40-3.74L-86.24-3.74L-86.24-2.86L-84.02-2.86L-84.02 15.18Q-84.02 16.65-85.01 16.93L-85.01 16.93Q-85.46 17.07-86.24 17.07L-86.24 17.07L-86.24 17.99L-77.27 17.99Q-77.27 17.22-77.73 17.11L-77.73 17.11Q-77.94 17.07-78.15 17.07L-78.15 17.07ZM-76.15-2.61L-76.15-2.61Q-72.81-2.54-72.77 3.79L-72.77 3.79Q-72.77 9.80-75.62 10.64L-75.62 10.64Q-76.01 10.75-76.46 10.75L-76.46 10.75Q-78.61 10.75-79.59 8.25L-79.59 8.25Q-80.19 6.67-80.19 4.45L-80.19 4.45Q-80.19-0.01-78.15-1.84L-78.15-1.84Q-77.24-2.61-76.15-2.61ZM-60.61 10.68L-60.61 10.68Q-58.25 10.68-57.69 9.09L-57.69 9.09Q-57.59 8.74-57.59 8.39L-57.59 8.39Q-57.59 6.70-59.80 5.54L-59.80 5.54Q-60.29 5.30-61.35 4.84L-61.35 4.84Q-64.05 3.64-64.97 2.66L-64.97 2.66Q-65.92 1.54-65.92 0.06L-65.92 0.06Q-65.92-2.72-62.89-3.77L-62.89-3.77Q-61.56-4.23-59.91-4.23L-59.91-4.23Q-57.34-4.23-55.69-3.25L-55.69-3.25Q-55.69-4.30-55.13-4.41L-55.13-4.41Q-54.95-4.44-54.77-4.44L-54.77-4.44L-54.77-0.05L-55.83-0.05Q-55.97-3.25-59.34-3.28L-59.34-3.28Q-61.70-3.28-62.26-1.80L-62.26-1.80Q-62.40-1.42-62.40-1.03L-62.40-1.03Q-62.40 0.45-60.29 1.54L-60.29 1.54Q-59.84 1.75-58.82 2.20L-58.82 2.20Q-56.04 3.40-55.13 4.42L-55.13 4.42Q-54.07 5.61-54.07 7.23L-54.07 7.23Q-54.07 10.22-57.16 11.24L-57.16 11.24Q-58.43 11.66-59.98 11.66L-59.98 11.66Q-62.93 11.66-64.93 10.50L-64.93 10.50Q-64.93 11.41-65.39 11.56L-65.39 11.56Q-65.60 11.59-65.88 11.59L-65.88 11.59L-65.88 6.25L-64.76 6.25Q-64.69 10.64-60.61 10.68ZM-52.31-3.63L-52.31-2.72L-49.89-2.72L-49.89 6.42Q-49.57 11.52-45.14 11.70L-45.14 11.70Q-42.36 11.70-41.38 9.48L-41.38 9.48Q-41.03 8.71-40.82 7.62L-40.82 7.62L-41.77 7.48Q-42.54 10.61-44.26 10.64L-44.26 10.64Q-45.74 10.64-45.98 8.64L-45.98 8.64Q-46.02 8.29-46.02 7.93L-46.02 7.93L-46.02-2.72L-41.10-2.72L-41.10-3.63L-46.02-3.63L-46.02-7.71L-49.89-6.97L-49.89-3.63L-52.31-3.63ZM-31.11 10.39L-31.11 10.39L-33.68 10.39L-33.68 2.77Q-33.43-0.61-31.78-1.77L-31.78-1.77Q-31.39-2.02-31.11-2.02L-31.11-2.02Q-30.66-2.02-30.20-1.21L-30.20-1.21Q-29.60-0.08-28.93 0.13L-28.93 0.13Q-28.62 0.23-28.27 0.23L-28.27 0.23Q-27.00 0.23-26.47-1.00L-26.47-1.00Q-26.30-1.38-26.30-1.80L-26.30-1.80Q-26.30-3.49-27.95-3.91L-27.95-3.91Q-28.37-4.02-28.79-4.02L-28.79-4.02Q-30.94-4.02-32.63-2.26L-32.63-2.26Q-33.36-1.45-33.79-0.43L-33.79-0.43L-34.00-3.74L-39.80-3.74L-39.80-2.86L-37.58-2.86L-37.58 8.50Q-37.58 10.01-38.64 10.29L-38.64 10.29Q-39.09 10.39-39.80 10.39L-39.80 10.39L-39.80 11.31L-30.27 11.31Q-30.27 10.50-30.80 10.43L-30.80 10.43Q-30.94 10.39-31.11 10.39ZM-17.26-3.32L-17.26-3.32Q-15.08-3.32-14.66-0.75L-14.66-0.75Q-14.55-0.19-14.55 0.41L-14.55 0.41Q-14.55 2.06-15.75 2.48L-15.75 2.48Q-16.52 2.70-18.00 2.66L-18.00 2.66L-20.71 2.56Q-20.57-2.44-18.07-3.21L-18.07-3.21Q-17.65-3.32-17.26-3.32ZM-10.83 7.76L-10.83 7.76L-11.67 7.48Q-12.69 9.69-14.91 10.39L-14.91 10.39Q-15.64 10.64-16.42 10.64L-16.42 10.64Q-20.53 10.64-20.71 3.64L-20.71 3.64Q-20.71 3.61-20.71 3.57L-20.71 3.57L-17.16 3.64Q-11.88 3.75-10.83 2.13L-10.83 2.13Q-10.48 1.57-10.48 0.80L-10.48 0.80Q-10.48-1.98-13.29-3.39L-13.29-3.39Q-15.05-4.23-17.26-4.23L-17.26-4.23Q-21.30-4.23-23.45-1.31L-23.45-1.31Q-24.96 0.76-24.96 3.72L-24.96 3.72Q-24.96 8.53-21.41 10.61L-21.41 10.61Q-19.51 11.66-17.16 11.66L-17.16 11.66Q-13.15 11.66-11.36 8.81L-11.36 8.81Q-11.04 8.29-10.83 7.76ZM-0.67-3.32L-0.67-3.32Q1.51-3.32 1.93-0.75L1.93-0.75Q2.04-0.19 2.04 0.41L2.04 0.41Q2.04 2.06 0.84 2.48L0.84 2.48Q0.07 2.70-1.41 2.66L-1.41 2.66L-4.11 2.56Q-3.97-2.44-1.48-3.21L-1.48-3.21Q-1.05-3.32-0.67-3.32ZM5.77 7.76L5.77 7.76L4.92 7.48Q3.90 9.69 1.69 10.39L1.69 10.39Q0.95 10.64 0.18 10.64L0.18 10.64Q-3.94 10.64-4.11 3.64L-4.11 3.64Q-4.11 3.61-4.11 3.57L-4.11 3.57L-0.56 3.64Q4.71 3.75 5.77 2.13L5.77 2.13Q6.12 1.57 6.12 0.80L6.12 0.80Q6.12-1.98 3.30-3.39L3.30-3.39Q1.55-4.23-0.67-4.23L-0.67-4.23Q-4.71-4.23-6.86-1.31L-6.86-1.31Q-8.37 0.76-8.37 3.72L-8.37 3.72Q-8.37 8.53-4.82 10.61L-4.82 10.61Q-2.92 11.66-0.56 11.66L-0.56 11.66Q3.45 11.66 5.24 8.81L5.24 8.81Q5.55 8.29 5.77 7.76ZM31.75 5.54L31.75 5.54Q31.75 2.56 28.44 0.52L28.44 0.52Q27.95 0.23 24.64-1.38L24.64-1.38Q21.62-2.89 20.88-4.34L20.88-4.34Q20.50-5.11 20.50-5.92L20.50-5.92Q20.50-8.03 22.54-8.80L22.54-8.80Q23.34-9.12 24.26-9.12L24.26-9.12Q27.14-9.12 28.62-7.04L28.62-7.04Q29.60-5.64 29.60-3.70L29.60-3.70L30.87-3.70L30.87-10.00Q29.88-10.00 29.74-9.33L29.74-9.33Q29.71-9.08 29.71-8.77L29.71-8.77Q26.93-10.14 23.73-10.14L23.73-10.14Q19.65-10.14 17.51-7.96L17.51-7.96Q16.10-6.52 16.10-4.55L16.10-4.55Q16.10-1.59 19.41 0.41L19.41 0.41Q19.93 0.69 23.27 2.34L23.27 2.34Q26.37 3.86 27.11 5.33L27.11 5.33Q27.49 6.07 27.49 6.88L27.49 6.88Q27.49 9.34 25.21 10.25L25.21 10.25Q24.29 10.64 23.17 10.64L23.17 10.64Q18.98 10.64 17.65 6.53L17.65 6.53Q17.30 5.37 17.19 4.00L17.19 4.00L15.93 4.00L15.93 11.38Q16.80 11.38 16.98 10.85L16.98 10.85Q17.05 10.54 17.05 9.87L17.05 9.87Q19.79 11.66 23.48 11.66L23.48 11.66Q27.81 11.66 30.13 9.41L30.13 9.41Q31.75 7.83 31.75 5.54ZM38.71 3.72L38.71 3.72Q38.71-1.63 40.61-2.86L40.61-2.86Q41.38-3.32 42.40-3.32L42.40-3.32Q45.07-3.32 45.77-0.29L45.77-0.29Q46.12 1.18 46.12 3.57L46.12 3.57Q46.12 9.23 43.98 10.39L43.98 10.39Q43.28 10.75 42.40 10.75L42.40 10.75Q39.76 10.75 39.06 7.72L39.06 7.72Q38.71 6.21 38.71 3.72ZM42.54-4.23L42.54-4.23Q38.53-4.23 36.21-1.49L36.21-1.49Q34.45 0.62 34.45 3.57L34.45 3.57Q34.45 7.65 37.34 9.97L37.34 9.97Q39.45 11.66 42.29 11.66L42.29 11.66Q46.20 11.66 48.52 8.85L48.52 8.85Q50.34 6.63 50.34 3.57L50.34 3.57Q50.34-0.54 47.39-2.72L47.39-2.72Q45.35-4.23 42.54-4.23ZM60.61 10.39L60.61 10.39L58.82 10.39L58.82-11.54L52.24-11.54L52.24-10.63L54.95-10.63L54.95 8.43Q54.95 9.94 53.89 10.25L53.89 10.25Q53.37 10.39 52.24 10.39L52.24 10.39L52.24 11.31L61.49 11.31Q61.49 10.54 61.03 10.43L61.03 10.43Q60.82 10.39 60.61 10.39ZM80.40 10.39L80.40 10.39L79.03 10.39L79.03-3.74L73.05-3.74L73.05-2.86L75.16-2.86L75.13 5.61Q74.95 8.43 73.09 9.55L73.09 9.55Q72.39 9.94 71.68 9.94L71.68 9.94Q69.36 9.94 69.01 7.30L69.01 7.30Q68.94 6.84 68.94 6.39L68.94 6.39L68.94-3.74L62.82-3.74L62.82-2.86L65.07-2.86L65.07 5.82Q65.11 11.63 70.10 11.66L70.10 11.66Q72.95 11.66 74.64 9.27L74.64 9.27Q74.99 8.74 75.23 8.22L75.23 8.22L75.41 11.31L81.25 11.31Q81.25 10.50 80.79 10.43L80.79 10.43Q80.61 10.39 80.40 10.39ZM82.65-3.63L82.65-2.72L85.08-2.72L85.08 6.42Q85.39 11.52 89.82 11.70L89.82 11.70Q92.60 11.70 93.59 9.48L93.59 9.48Q93.94 8.71 94.15 7.62L94.15 7.62L93.20 7.48Q92.43 10.61 90.70 10.64L90.70 10.64Q89.23 10.64 88.98 8.64L88.98 8.64Q88.95 8.29 88.95 7.93L88.95 7.93L88.95-2.72L93.87-2.72L93.87-3.63L88.95-3.63L88.95-7.71L85.08-6.97L85.08-3.63L82.65-3.63ZM102.87 10.39L102.87 10.39L101.43 10.39L101.43-3.74L95.27-3.74L95.27-2.86L97.56-2.86L97.56 8.50Q97.56 10.01 96.40 10.29L96.40 10.29Q95.98 10.39 95.27 10.39L95.27 10.39L95.27 11.31L103.71 11.31Q103.71 10.50 103.18 10.43L103.18 10.43Q103.04 10.39 102.87 10.39ZM101.78-8.52L101.78-8.52Q101.78-9.96 100.48-10.66L100.48-10.66Q99.95-10.94 99.39-10.94L99.39-10.94Q97.95-10.94 97.28-9.64L97.28-9.64Q97.00-9.08 97.00-8.52L97.00-8.52Q97.00-7.04 98.30-6.41L98.30-6.41Q98.82-6.16 99.39-6.16L99.39-6.16Q100.83-6.16 101.50-7.39L101.50-7.39Q101.78-7.92 101.78-8.52ZM109.97 3.72L109.97 3.72Q109.97-1.63 111.87-2.86L111.87-2.86Q112.64-3.32 113.66-3.32L113.66-3.32Q116.33-3.32 117.04-0.29L117.04-0.29Q117.39 1.18 117.39 3.57L117.39 3.57Q117.39 9.23 115.24 10.39L115.24 10.39Q114.54 10.75 113.66 10.75L113.66 10.75Q111.02 10.75 110.32 7.72L110.32 7.72Q109.97 6.21 109.97 3.72ZM113.80-4.23L113.80-4.23Q109.79-4.23 107.47-1.49L107.47-1.49Q105.71 0.62 105.71 3.57L105.71 3.57Q105.71 7.65 108.60 9.97L108.60 9.97Q110.71 11.66 113.55 11.66L113.55 11.66Q117.46 11.66 119.78 8.85L119.78 8.85Q121.61 6.63 121.61 3.57L121.61 3.57Q121.61-0.54 118.65-2.72L118.65-2.72Q116.61-4.23 113.80-4.23ZM130.78 10.39L130.78 10.39L129.69 10.39L129.73 1.71Q129.97-1.10 131.84-2.16L131.84-2.16Q132.50-2.51 133.17-2.51L133.17-2.51Q135.14-2.51 135.67-0.43L135.67-0.43Q135.84 0.20 135.84 0.97L135.84 0.97L135.84 8.50Q135.84 9.97 135.04 10.25L135.04 10.25Q134.65 10.39 133.91 10.39L133.91 10.39L133.91 11.31L141.96 11.31Q141.96 10.54 141.50 10.43L141.50 10.43Q141.29 10.39 141.08 10.39L141.08 10.39L139.71 10.39L139.71 1.50Q139.71-2.65 136.83-3.84L136.83-3.84Q135.91-4.23 134.86-4.23L134.86-4.23Q132.33-4.23 130.57-2.23L130.57-2.23Q130.01-1.56 129.66-0.82L129.66-0.82L129.48-3.74L123.57-3.74L123.57-2.86L125.82-2.86L125.82 8.50Q125.82 10.04 124.66 10.29L124.66 10.29Q124.21 10.39 123.57 10.39L123.57 10.39L123.57 11.31L131.66 11.31Q131.66 10.54 131.20 10.43L131.20 10.43Q130.99 10.39 130.78 10.39ZM149.41 10.68L149.41 10.68Q151.77 10.68 152.33 9.09L152.33 9.09Q152.44 8.74 152.44 8.39L152.44 8.39Q152.44 6.70 150.22 5.54L150.22 5.54Q149.73 5.30 148.68 4.84L148.68 4.84Q145.97 3.64 145.05 2.66L145.05 2.66Q144.11 1.54 144.11 0.06L144.11 0.06Q144.11-2.72 147.13-3.77L147.13-3.77Q148.46-4.23 150.12-4.23L150.12-4.23Q152.68-4.23 154.34-3.25L154.34-3.25Q154.34-4.30 154.90-4.41L154.90-4.41Q155.07-4.44 155.25-4.44L155.25-4.44L155.25-0.05L154.20-0.05Q154.05-3.25 150.68-3.28L150.68-3.28Q148.32-3.28 147.76-1.80L147.76-1.80Q147.62-1.42 147.62-1.03L147.62-1.03Q147.62 0.45 149.73 1.54L149.73 1.54Q150.19 1.75 151.21 2.20L151.21 2.20Q153.98 3.40 154.90 4.42L154.90 4.42Q155.95 5.61 155.95 7.23L155.95 7.23Q155.95 10.22 152.86 11.24L152.86 11.24Q151.59 11.66 150.05 11.66L150.05 11.66Q147.09 11.66 145.09 10.50L145.09 10.50Q145.09 11.41 144.63 11.56L144.63 11.56Q144.42 11.59 144.14 11.59L144.14 11.59L144.14 6.25L145.27 6.25Q145.34 10.64 149.41 10.68Z"/></g>
<g transform="matrix(18.9285 0 0 17.2011 425.3755 412.0538)" id="875554">
<path style="stroke: none; stroke-width: 1; stroke-dasharray: none; stroke-linecap: butt; stroke-dashoffset: 0; stroke-linejoin: miter; stroke-miterlimit: 4; is-custom-font: none; font-file-url: none; fill: rgb(255,255,255); fill-rule: nonzero; opacity: 1;" vector-effect="non-scaling-stroke" transform=" translate(-12.06, -12)" d="M 14.31 0.18 l 0.9 0.2 l 0.73 0.26 l 0.59 0.3 l 0.45 0.32 l 0.34 0.34 l 0.25 0.34 l 0.16 0.33 l 0.1 0.3 l 0.04 0.26 l 0.02 0.2 l -0.01 0.13 V 8.5 l -0.05 0.63 l -0.13 0.55 l -0.21 0.46 l -0.26 0.38 l -0.3 0.31 l -0.33 0.25 l -0.35 0.19 l -0.35 0.14 l -0.33 0.1 l -0.3 0.07 l -0.26 0.04 l -0.21 0.02 H 8.83 l -0.69 0.05 l -0.59 0.14 l -0.5 0.22 l -0.41 0.27 l -0.33 0.32 l -0.27 0.35 l -0.2 0.36 l -0.15 0.37 l -0.1 0.35 l -0.07 0.32 l -0.04 0.27 l -0.02 0.21 v 3.06 H 3.23 l -0.21 -0.03 l -0.28 -0.07 l -0.32 -0.12 l -0.35 -0.18 l -0.36 -0.26 l -0.36 -0.36 l -0.35 -0.46 l -0.32 -0.59 l -0.28 -0.73 l -0.21 -0.88 l -0.14 -1.05 L 0 11.97 l 0.06 -1.22 l 0.16 -1.04 l 0.24 -0.87 l 0.32 -0.71 l 0.36 -0.57 l 0.4 -0.44 l 0.42 -0.33 l 0.42 -0.24 l 0.4 -0.16 l 0.36 -0.1 l 0.32 -0.05 l 0.24 -0.01 h 0.16 l 0.06 0.01 h 8.16 v -0.83 H 6.24 l -0.01 -2.75 l -0.02 -0.37 l 0.05 -0.34 l 0.11 -0.31 l 0.17 -0.28 l 0.25 -0.26 l 0.31 -0.23 l 0.38 -0.2 l 0.44 -0.18 l 0.51 -0.15 l 0.58 -0.12 l 0.64 -0.1 l 0.71 -0.06 l 0.77 -0.04 l 0.84 -0.02 l 1.27 0.05 l 1.07 0.13 z m -6.3 1.98 l -0.23 0.33 l -0.08 0.41 l 0.08 0.41 l 0.23 0.34 l 0.33 0.22 l 0.41 0.09 l 0.41 -0.09 l 0.33 -0.22 l 0.23 -0.34 l 0.08 -0.41 l -0.08 -0.41 l -0.23 -0.33 l -0.33 -0.22 l -0.41 -0.09 l -0.41 0.09 l -0.33 0.22 z M 21.1 6.11 l 0.28 0.06 l 0.32 0.12 l 0.35 0.18 l 0.36 0.27 l 0.36 0.35 l 0.35 0.47 l 0.32 0.59 l 0.28 0.73 l 0.21 0.88 l 0.14 1.04 l 0.05 1.23 l -0.06 1.23 l -0.16 1.04 l -0.24 0.86 l -0.32 0.71 l -0.36 0.57 l -0.4 0.45 l -0.42 0.33 l -0.42 0.24 l -0.4 0.16 l -0.36 0.09 l -0.32 0.05 l -0.24 0.02 l -0.16 -0.01 h -8.22 v 0.82 h 5.84 l 0.01 2.76 l 0.02 0.36 l -0.05 0.34 l -0.11 0.31 l -0.17 0.29 l -0.25 0.25 l -0.31 0.24 l -0.38 0.2 l -0.44 0.17 l -0.51 0.15 l -0.58 0.13 l -0.64 0.09 l -0.71 0.07 l -0.77 0.04 l -0.84 0.01 l -1.27 -0.04 l -1.07 -0.14 l -0.9 -0.2 l -0.73 -0.25 l -0.59 -0.3 l -0.45 -0.33 l -0.34 -0.34 l -0.25 -0.34 l -0.16 -0.33 l -0.1 -0.3 l -0.04 -0.25 l -0.02 -0.2 l 0.01 -0.13 v -5.34 l 0.05 -0.64 l 0.13 -0.54 l 0.21 -0.46 l 0.26 -0.38 l 0.3 -0.32 l 0.33 -0.24 l 0.35 -0.2 l 0.35 -0.14 l 0.33 -0.1 l 0.3 -0.06 l 0.26 -0.04 l 0.21 -0.02 l 0.13 -0.01 h 5.84 l 0.69 -0.05 l 0.59 -0.14 l 0.5 -0.21 l 0.41 -0.28 l 0.33 -0.32 l 0.27 -0.35 l 0.2 -0.36 l 0.15 -0.36 l 0.1 -0.35 l 0.07 -0.32 l 0.04 -0.28 l 0.02 -0.21 V 6.07 h 2.09 l 0.14 0.01 l 0.21 0.03 z m -6.47 14.25 l -0.23 0.33 l -0.08 0.41 l 0.08 0.41 l 0.23 0.33 l 0.33 0.23 l 0.41 0.08 l 0.41 -0.08 l 0.33 -0.23 l 0.23 -0.33 l 0.08 -0.41 l -0.08 -0.41 l -0.23 -0.33 l -0.33 -0.23 l -0.41 -0.08 l -0.41 0.08 l -0.33 0.23 z" stroke-linecap="round"/>
</g>
</svg>